<mxfile host="app.diagrams.net" modified="2022-07-21T03:13:26.284Z" agent="5.0 (Windows NT 10.0; Win64; x64) AppleWebKit/537.36 (KHTML, like Gecko) Chrome/103.0.5060.114 Safari/537.36 Edg/103.0.1264.49" etag="IkT0WYr3IdHgdV5b-sN0" version="20.1.2" type="github" pages="2">
  <diagram id="C5RBs43oDa-KdzZeNtuy" name="Page-1">
    <mxGraphModel dx="1360" dy="802" grid="1" gridSize="10" guides="1" tooltips="1" connect="1" arrows="1" fold="1" page="1" pageScale="1" pageWidth="827" pageHeight="1169" background="none" math="0" shadow="0">
      <root>
        <mxCell id="WIyWlLk6GJQsqaUBKTNV-0" />
        <mxCell id="WIyWlLk6GJQsqaUBKTNV-1" parent="WIyWlLk6GJQsqaUBKTNV-0" />
        <mxCell id="IO2iFSCvqAnWVY3sA_fM-19" style="edgeStyle=orthogonalEdgeStyle;rounded=0;orthogonalLoop=1;jettySize=auto;html=1;exitX=0.5;exitY=1;exitDx=0;exitDy=0;" parent="WIyWlLk6GJQsqaUBKTNV-1" source="zkfFHV4jXpPFQw0GAbJ--0" target="IO2iFSCvqAnWVY3sA_fM-6" edge="1">
          <mxGeometry relative="1" as="geometry">
            <Array as="points">
              <mxPoint x="440" y="630" />
            </Array>
          </mxGeometry>
        </mxCell>
        <mxCell id="IO2iFSCvqAnWVY3sA_fM-20" style="edgeStyle=orthogonalEdgeStyle;rounded=0;orthogonalLoop=1;jettySize=auto;html=1;exitX=0.5;exitY=1;exitDx=0;exitDy=0;entryX=0.5;entryY=0;entryDx=0;entryDy=0;" parent="WIyWlLk6GJQsqaUBKTNV-1" source="zkfFHV4jXpPFQw0GAbJ--0" target="IO2iFSCvqAnWVY3sA_fM-12" edge="1">
          <mxGeometry relative="1" as="geometry">
            <Array as="points">
              <mxPoint x="440" y="720" />
              <mxPoint x="620" y="720" />
            </Array>
          </mxGeometry>
        </mxCell>
        <mxCell id="IO2iFSCvqAnWVY3sA_fM-38" style="edgeStyle=orthogonalEdgeStyle;rounded=0;orthogonalLoop=1;jettySize=auto;html=1;exitX=0.5;exitY=1;exitDx=0;exitDy=0;" parent="WIyWlLk6GJQsqaUBKTNV-1" source="zkfFHV4jXpPFQw0GAbJ--0" target="IO2iFSCvqAnWVY3sA_fM-0" edge="1">
          <mxGeometry relative="1" as="geometry">
            <Array as="points">
              <mxPoint x="440" y="720" />
              <mxPoint x="260" y="720" />
            </Array>
          </mxGeometry>
        </mxCell>
        <mxCell id="zkfFHV4jXpPFQw0GAbJ--0" value="Parent " style="swimlane;fontStyle=2;align=center;verticalAlign=top;childLayout=stackLayout;horizontal=1;startSize=26;horizontalStack=0;resizeParent=1;resizeLast=0;collapsible=1;marginBottom=0;rounded=0;shadow=0;strokeWidth=1;" parent="WIyWlLk6GJQsqaUBKTNV-1" vertex="1">
          <mxGeometry x="325" y="470" width="230" height="164" as="geometry">
            <mxRectangle x="230" y="140" width="160" height="26" as="alternateBounds" />
          </mxGeometry>
        </mxCell>
        <mxCell id="zkfFHV4jXpPFQw0GAbJ--1" value="Name: JsEngine" style="text;align=left;verticalAlign=top;spacingLeft=4;spacingRight=4;overflow=hidden;rotatable=0;points=[[0,0.5],[1,0.5]];portConstraint=eastwest;" parent="zkfFHV4jXpPFQw0GAbJ--0" vertex="1">
          <mxGeometry y="26" width="230" height="26" as="geometry" />
        </mxCell>
        <mxCell id="IO2iFSCvqAnWVY3sA_fM-24" value="" style="line;html=1;strokeWidth=1;align=left;verticalAlign=middle;spacingTop=-1;spacingLeft=3;spacingRight=3;rotatable=0;labelPosition=right;points=[];portConstraint=eastwest;" parent="zkfFHV4jXpPFQw0GAbJ--0" vertex="1">
          <mxGeometry y="52" width="230" height="8" as="geometry" />
        </mxCell>
        <mxCell id="zkfFHV4jXpPFQw0GAbJ--2" value="pivotal virtual function:&lt;br&gt;&amp;nbsp;&amp;nbsp;&amp;nbsp;&amp;nbsp;Initialize() = 0;&lt;br&gt;&amp;nbsp;&amp;nbsp;&amp;nbsp;&amp;nbsp;LoadJs() = 0;&lt;br&gt;&amp;nbsp; &amp;nbsp; GetStacktraceMessage();" style="text;align=left;verticalAlign=top;spacingLeft=4;spacingRight=4;overflow=hidden;rotatable=0;points=[[0,0.5],[1,0.5]];portConstraint=eastwest;rounded=0;shadow=0;html=1;" parent="zkfFHV4jXpPFQw0GAbJ--0" vertex="1">
          <mxGeometry y="60" width="230" height="70" as="geometry" />
        </mxCell>
        <mxCell id="zkfFHV4jXpPFQw0GAbJ--4" value="" style="line;html=1;strokeWidth=1;align=left;verticalAlign=middle;spacingTop=-1;spacingLeft=3;spacingRight=3;rotatable=0;labelPosition=right;points=[];portConstraint=eastwest;" parent="zkfFHV4jXpPFQw0GAbJ--0" vertex="1">
          <mxGeometry y="130" width="230" height="8" as="geometry" />
        </mxCell>
        <mxCell id="zkfFHV4jXpPFQw0GAbJ--5" value="Purchase Parking Pass" style="text;align=left;verticalAlign=top;spacingLeft=4;spacingRight=4;overflow=hidden;rotatable=0;points=[[0,0.5],[1,0.5]];portConstraint=eastwest;" parent="zkfFHV4jXpPFQw0GAbJ--0" vertex="1">
          <mxGeometry y="138" width="230" height="26" as="geometry" />
        </mxCell>
        <mxCell id="zkfFHV4jXpPFQw0GAbJ--13" value="pivotal code" style="swimlane;fontStyle=0;align=center;verticalAlign=top;childLayout=stackLayout;horizontal=1;startSize=26;horizontalStack=0;resizeParent=1;resizeLast=0;collapsible=1;marginBottom=0;rounded=0;shadow=0;strokeWidth=1;" parent="WIyWlLk6GJQsqaUBKTNV-1" vertex="1">
          <mxGeometry x="760" y="750" width="500" height="320" as="geometry">
            <mxRectangle x="340" y="380" width="170" height="26" as="alternateBounds" />
          </mxGeometry>
        </mxCell>
        <mxCell id="IO2iFSCvqAnWVY3sA_fM-40" value="1:&lt;br&gt;&lt;div&gt;RefPtr&amp;lt;JsEngine&amp;gt; DeclarativeEngineLoader::CreateJsEngine(int32_t instanceId) const&lt;/div&gt;&lt;div&gt;{&lt;/div&gt;&lt;div&gt;#ifdef USE_V8_ENGINE&lt;/div&gt;&lt;div&gt;&amp;nbsp; &amp;nbsp; return AceType::MakeRefPtr&amp;lt;V8DeclarativeEngine&amp;gt;(instanceId);&lt;/div&gt;&lt;div&gt;#endif&lt;/div&gt;&lt;div&gt;&lt;br&gt;&lt;/div&gt;&lt;div&gt;#ifdef USE_QUICKJS_ENGINE&lt;/div&gt;&lt;div&gt;&amp;nbsp; &amp;nbsp; return AceType::MakeRefPtr&amp;lt;QJSDeclarativeEngine&amp;gt;(instanceId);&lt;/div&gt;&lt;div&gt;#endif&lt;/div&gt;&lt;div&gt;&lt;br&gt;&lt;/div&gt;&lt;div&gt;#ifdef USE_ARK_ENGINE&lt;/div&gt;&lt;div&gt;&amp;nbsp; &amp;nbsp; return AceType::MakeRefPtr&amp;lt;JsiDeclarativeEngine&amp;gt;(instanceId);&lt;/div&gt;&lt;div&gt;#endif&lt;/div&gt;&lt;div&gt;}&lt;/div&gt;" style="text;align=left;verticalAlign=top;spacingLeft=4;spacingRight=4;overflow=hidden;rotatable=0;points=[[0,0.5],[1,0.5]];portConstraint=eastwest;labelBorderColor=none;whiteSpace=wrap;html=1;" parent="zkfFHV4jXpPFQw0GAbJ--13" vertex="1">
          <mxGeometry y="26" width="500" height="224" as="geometry" />
        </mxCell>
        <mxCell id="zkfFHV4jXpPFQw0GAbJ--15" value="" style="line;html=1;strokeWidth=1;align=left;verticalAlign=middle;spacingTop=-1;spacingLeft=3;spacingRight=3;rotatable=0;labelPosition=right;points=[];portConstraint=eastwest;" parent="zkfFHV4jXpPFQw0GAbJ--13" vertex="1">
          <mxGeometry y="250" width="500" height="8" as="geometry" />
        </mxCell>
        <mxCell id="MEmFjFD-LDoa6DUwcWKF-1" value="&lt;div style=&quot;&quot;&gt;&lt;div&gt;2:&lt;/div&gt;&lt;div&gt;page-&amp;gt;SetPageMap(jsSourceMap);&lt;/div&gt;&lt;div&gt;page-&amp;gt;SetAppMap(appMap);&lt;/div&gt;&lt;/div&gt;" style="text;html=1;align=left;verticalAlign=middle;resizable=0;points=[];autosize=1;strokeColor=none;fillColor=none;" parent="zkfFHV4jXpPFQw0GAbJ--13" vertex="1">
          <mxGeometry y="258" width="500" height="60" as="geometry" />
        </mxCell>
        <mxCell id="zkfFHV4jXpPFQw0GAbJ--17" value="Function Description" style="swimlane;fontStyle=0;align=center;verticalAlign=top;childLayout=stackLayout;horizontal=1;startSize=26;horizontalStack=0;resizeParent=1;resizeLast=0;collapsible=1;marginBottom=0;rounded=0;shadow=0;strokeWidth=1;" parent="WIyWlLk6GJQsqaUBKTNV-1" vertex="1">
          <mxGeometry x="710" y="460" width="400" height="260" as="geometry">
            <mxRectangle x="560" y="470" width="160" height="26" as="alternateBounds" />
          </mxGeometry>
        </mxCell>
        <mxCell id="zkfFHV4jXpPFQw0GAbJ--19" value="Initialize(const RefPtr&lt;FrontendDelegate&gt;&amp; delegate)" style="text;align=left;verticalAlign=top;spacingLeft=4;spacingRight=4;overflow=hidden;rotatable=0;points=[[0,0.5],[1,0.5]];portConstraint=eastwest;rounded=0;shadow=0;html=0;" parent="zkfFHV4jXpPFQw0GAbJ--17" vertex="1">
          <mxGeometry y="26" width="400" height="26" as="geometry" />
        </mxCell>
        <mxCell id="zkfFHV4jXpPFQw0GAbJ--20" value="初始化事件，包含注册监听进程的堆栈日志，执行状态，任务发放线程创建接口，全局事件监听接口等&#xa;和本次内容相关为，初始化监听的内容，关键代码：&#xa;engineInstance_-&gt;InitJsEnv(IsDebugVersion(), GetExtraNativeObject());" style="text;align=left;verticalAlign=top;spacingLeft=4;spacingRight=4;overflow=hidden;rotatable=0;points=[[0,0.5],[1,0.5]];portConstraint=eastwest;rounded=0;shadow=0;html=0;whiteSpace=wrap;" parent="zkfFHV4jXpPFQw0GAbJ--17" vertex="1">
          <mxGeometry y="52" width="400" height="68" as="geometry" />
        </mxCell>
        <mxCell id="zkfFHV4jXpPFQw0GAbJ--23" value="" style="line;html=1;strokeWidth=1;align=left;verticalAlign=middle;spacingTop=-1;spacingLeft=3;spacingRight=3;rotatable=0;labelPosition=right;points=[];portConstraint=eastwest;" parent="zkfFHV4jXpPFQw0GAbJ--17" vertex="1">
          <mxGeometry y="120" width="400" height="8" as="geometry" />
        </mxCell>
        <mxCell id="zkfFHV4jXpPFQw0GAbJ--24" value="LoadJs(const std::string&amp; url, const RefPtr&lt;JsAcePage&gt;&amp; page&#xa;             bool isMainPage)" style="text;align=left;verticalAlign=top;spacingLeft=4;spacingRight=4;overflow=hidden;rotatable=0;points=[[0,0.5],[1,0.5]];portConstraint=eastwest;whiteSpace=wrap;" parent="zkfFHV4jXpPFQw0GAbJ--17" vertex="1">
          <mxGeometry y="128" width="400" height="32" as="geometry" />
        </mxCell>
        <mxCell id="zkfFHV4jXpPFQw0GAbJ--25" value="捆绑运行进程时执行代码与源代码之间的映射,pivotal code 2" style="text;align=left;verticalAlign=top;spacingLeft=4;spacingRight=4;overflow=hidden;rotatable=0;points=[[0,0.5],[1,0.5]];portConstraint=eastwest;" parent="zkfFHV4jXpPFQw0GAbJ--17" vertex="1">
          <mxGeometry y="160" width="400" height="30" as="geometry" />
        </mxCell>
        <mxCell id="IO2iFSCvqAnWVY3sA_fM-64" value="" style="line;html=1;strokeWidth=1;align=left;verticalAlign=middle;spacingTop=-1;spacingLeft=3;spacingRight=3;rotatable=0;labelPosition=right;points=[];portConstraint=eastwest;" parent="zkfFHV4jXpPFQw0GAbJ--17" vertex="1">
          <mxGeometry y="190" width="400" height="8" as="geometry" />
        </mxCell>
        <mxCell id="IO2iFSCvqAnWVY3sA_fM-66" value="GetStacktraceMessage();" style="text;align=left;verticalAlign=top;spacingLeft=4;spacingRight=4;overflow=hidden;rotatable=0;points=[[0,0.5],[1,0.5]];portConstraint=eastwest;" parent="zkfFHV4jXpPFQw0GAbJ--17" vertex="1">
          <mxGeometry y="198" width="400" height="30" as="geometry" />
        </mxCell>
        <mxCell id="IO2iFSCvqAnWVY3sA_fM-65" value="&lt;span style=&quot;color: rgb(0, 0, 0);&quot;&gt;字面意义，提供给外部调用的堆栈打印接口，内部调用&amp;nbsp;&lt;/span&gt;TransSourceStack" style="text;align=left;verticalAlign=top;spacingLeft=4;spacingRight=4;overflow=hidden;rotatable=0;points=[[0,0.5],[1,0.5]];portConstraint=eastwest;whiteSpace=wrap;fontColor=#FF1605;html=1;" parent="zkfFHV4jXpPFQw0GAbJ--17" vertex="1">
          <mxGeometry y="228" width="400" height="32" as="geometry" />
        </mxCell>
        <mxCell id="IO2iFSCvqAnWVY3sA_fM-0" value="Subclass 1" style="swimlane;fontStyle=0;align=center;verticalAlign=top;childLayout=stackLayout;horizontal=1;startSize=26;horizontalStack=0;resizeParent=1;resizeLast=0;collapsible=1;marginBottom=0;rounded=0;shadow=0;strokeWidth=1;" parent="WIyWlLk6GJQsqaUBKTNV-1" vertex="1">
          <mxGeometry x="180" y="800" width="160" height="130" as="geometry">
            <mxRectangle x="130" y="380" width="160" height="26" as="alternateBounds" />
          </mxGeometry>
        </mxCell>
        <mxCell id="IO2iFSCvqAnWVY3sA_fM-1" value="Name:&amp;nbsp;&lt;br&gt;JsiDeclarativeEngine" style="text;align=left;verticalAlign=top;spacingLeft=4;spacingRight=4;overflow=hidden;rotatable=0;points=[[0,0.5],[1,0.5]];portConstraint=eastwest;labelBorderColor=none;whiteSpace=wrap;html=1;" parent="IO2iFSCvqAnWVY3sA_fM-0" vertex="1">
          <mxGeometry y="26" width="160" height="44" as="geometry" />
        </mxCell>
        <mxCell id="IO2iFSCvqAnWVY3sA_fM-3" value="" style="line;html=1;strokeWidth=1;align=left;verticalAlign=middle;spacingTop=-1;spacingLeft=3;spacingRight=3;rotatable=0;labelPosition=right;points=[];portConstraint=eastwest;" parent="IO2iFSCvqAnWVY3sA_fM-0" vertex="1">
          <mxGeometry y="70" width="160" height="8" as="geometry" />
        </mxCell>
        <mxCell id="IO2iFSCvqAnWVY3sA_fM-4" value="override scene:" style="text;align=left;verticalAlign=top;spacingLeft=4;spacingRight=4;overflow=hidden;rotatable=0;points=[[0,0.5],[1,0.5]];portConstraint=eastwest;fontStyle=4" parent="IO2iFSCvqAnWVY3sA_fM-0" vertex="1">
          <mxGeometry y="78" width="160" height="26" as="geometry" />
        </mxCell>
        <mxCell id="IO2iFSCvqAnWVY3sA_fM-5" value="pivotal code 1" style="text;align=left;verticalAlign=top;spacingLeft=4;spacingRight=4;overflow=hidden;rotatable=0;points=[[0,0.5],[1,0.5]];portConstraint=eastwest;" parent="IO2iFSCvqAnWVY3sA_fM-0" vertex="1">
          <mxGeometry y="104" width="160" height="26" as="geometry" />
        </mxCell>
        <mxCell id="IO2iFSCvqAnWVY3sA_fM-6" value="Subclass 2 " style="swimlane;fontStyle=0;align=center;verticalAlign=top;childLayout=stackLayout;horizontal=1;startSize=26;horizontalStack=0;resizeParent=1;resizeLast=0;collapsible=1;marginBottom=0;rounded=0;shadow=0;strokeWidth=1;" parent="WIyWlLk6GJQsqaUBKTNV-1" vertex="1">
          <mxGeometry x="360" y="800" width="160" height="130" as="geometry">
            <mxRectangle x="130" y="380" width="160" height="26" as="alternateBounds" />
          </mxGeometry>
        </mxCell>
        <mxCell id="IO2iFSCvqAnWVY3sA_fM-7" value="Name:&lt;br&gt;QJSDeclarativeEngine" style="text;align=left;verticalAlign=top;spacingLeft=4;spacingRight=4;overflow=hidden;rotatable=0;points=[[0,0.5],[1,0.5]];portConstraint=eastwest;whiteSpace=wrap;labelBorderColor=none;html=1;labelBackgroundColor=none;" parent="IO2iFSCvqAnWVY3sA_fM-6" vertex="1">
          <mxGeometry y="26" width="160" height="44" as="geometry" />
        </mxCell>
        <mxCell id="IO2iFSCvqAnWVY3sA_fM-9" value="" style="line;html=1;strokeWidth=1;align=left;verticalAlign=middle;spacingTop=-1;spacingLeft=3;spacingRight=3;rotatable=0;labelPosition=right;points=[];portConstraint=eastwest;" parent="IO2iFSCvqAnWVY3sA_fM-6" vertex="1">
          <mxGeometry y="70" width="160" height="8" as="geometry" />
        </mxCell>
        <mxCell id="IO2iFSCvqAnWVY3sA_fM-25" value="override scene:" style="text;align=left;verticalAlign=top;spacingLeft=4;spacingRight=4;overflow=hidden;rotatable=0;points=[[0,0.5],[1,0.5]];portConstraint=eastwest;fontStyle=4" parent="IO2iFSCvqAnWVY3sA_fM-6" vertex="1">
          <mxGeometry y="78" width="160" height="26" as="geometry" />
        </mxCell>
        <mxCell id="IO2iFSCvqAnWVY3sA_fM-36" value="pivotal code 1" style="text;align=left;verticalAlign=top;spacingLeft=4;spacingRight=4;overflow=hidden;rotatable=0;points=[[0,0.5],[1,0.5]];portConstraint=eastwest;" parent="IO2iFSCvqAnWVY3sA_fM-6" vertex="1">
          <mxGeometry y="104" width="160" height="26" as="geometry" />
        </mxCell>
        <mxCell id="IO2iFSCvqAnWVY3sA_fM-12" value="Subclass 3" style="swimlane;fontStyle=0;align=center;verticalAlign=top;childLayout=stackLayout;horizontal=1;startSize=26;horizontalStack=0;resizeParent=1;resizeLast=0;collapsible=1;marginBottom=0;rounded=0;shadow=0;strokeWidth=1;" parent="WIyWlLk6GJQsqaUBKTNV-1" vertex="1">
          <mxGeometry x="540" y="800" width="160" height="130" as="geometry">
            <mxRectangle x="130" y="380" width="160" height="26" as="alternateBounds" />
          </mxGeometry>
        </mxCell>
        <mxCell id="IO2iFSCvqAnWVY3sA_fM-23" value="Name:&lt;br&gt;JsiDeclarativeEngine" style="text;align=left;verticalAlign=top;spacingLeft=4;spacingRight=4;overflow=hidden;rotatable=0;points=[[0,0.5],[1,0.5]];portConstraint=eastwest;whiteSpace=wrap;labelBorderColor=none;labelBackgroundColor=none;html=1;" parent="IO2iFSCvqAnWVY3sA_fM-12" vertex="1">
          <mxGeometry y="26" width="160" height="44" as="geometry" />
        </mxCell>
        <mxCell id="IO2iFSCvqAnWVY3sA_fM-15" value="" style="line;html=1;strokeWidth=1;align=left;verticalAlign=middle;spacingTop=-1;spacingLeft=3;spacingRight=3;rotatable=0;labelPosition=right;points=[];portConstraint=eastwest;" parent="IO2iFSCvqAnWVY3sA_fM-12" vertex="1">
          <mxGeometry y="70" width="160" height="8" as="geometry" />
        </mxCell>
        <mxCell id="IO2iFSCvqAnWVY3sA_fM-26" value="override scene:" style="text;align=left;verticalAlign=top;spacingLeft=4;spacingRight=4;overflow=hidden;rotatable=0;points=[[0,0.5],[1,0.5]];portConstraint=eastwest;fontStyle=4" parent="IO2iFSCvqAnWVY3sA_fM-12" vertex="1">
          <mxGeometry y="78" width="160" height="26" as="geometry" />
        </mxCell>
        <mxCell id="IO2iFSCvqAnWVY3sA_fM-37" value="pivotal code 1" style="text;align=left;verticalAlign=top;spacingLeft=4;spacingRight=4;overflow=hidden;rotatable=0;points=[[0,0.5],[1,0.5]];portConstraint=eastwest;" parent="IO2iFSCvqAnWVY3sA_fM-12" vertex="1">
          <mxGeometry y="104" width="160" height="26" as="geometry" />
        </mxCell>
        <mxCell id="IO2iFSCvqAnWVY3sA_fM-22" style="edgeStyle=orthogonalEdgeStyle;rounded=0;orthogonalLoop=1;jettySize=auto;html=1;exitX=1;exitY=0.5;exitDx=0;exitDy=0;entryX=0;entryY=0.5;entryDx=0;entryDy=0;" parent="WIyWlLk6GJQsqaUBKTNV-1" source="zkfFHV4jXpPFQw0GAbJ--2" target="zkfFHV4jXpPFQw0GAbJ--17" edge="1">
          <mxGeometry relative="1" as="geometry">
            <mxPoint x="700" y="590" as="targetPoint" />
            <Array as="points">
              <mxPoint x="628" y="559" />
              <mxPoint x="700" y="560" />
            </Array>
          </mxGeometry>
        </mxCell>
        <mxCell id="IO2iFSCvqAnWVY3sA_fM-30" value="&lt;div style=&quot;color: rgb(212, 212, 212); background-color: rgb(30, 30, 30); font-family: Consolas, &amp;quot;Courier New&amp;quot;, monospace; font-size: 14px; line-height: 19px;&quot;&gt;&lt;span style=&quot;color: #4ec9b0;&quot;&gt;DeclarativeEngineLoader&lt;/span&gt;&lt;/div&gt;" style="text;html=1;strokeColor=none;fillColor=none;align=center;verticalAlign=middle;whiteSpace=wrap;rounded=0;labelBackgroundColor=none;labelBorderColor=none;" parent="WIyWlLk6GJQsqaUBKTNV-1" vertex="1">
          <mxGeometry x="440" y="667" width="60" height="30" as="geometry" />
        </mxCell>
        <mxCell id="IO2iFSCvqAnWVY3sA_fM-33" style="edgeStyle=orthogonalEdgeStyle;rounded=0;orthogonalLoop=1;jettySize=auto;html=1;exitX=0;exitY=0.5;exitDx=0;exitDy=0;entryX=0.5;entryY=1;entryDx=0;entryDy=0;startArrow=none;" parent="WIyWlLk6GJQsqaUBKTNV-1" source="IO2iFSCvqAnWVY3sA_fM-35" target="IO2iFSCvqAnWVY3sA_fM-53" edge="1">
          <mxGeometry relative="1" as="geometry">
            <mxPoint x="260" y="330" as="targetPoint" />
            <Array as="points">
              <mxPoint x="250" y="445" />
            </Array>
          </mxGeometry>
        </mxCell>
        <mxCell id="IO2iFSCvqAnWVY3sA_fM-45" value="InitJsEnv&#xa;包含有与堆栈打印相关的关键代码：" style="swimlane;fontStyle=0;childLayout=stackLayout;horizontal=1;startSize=26;fillColor=none;horizontalStack=0;resizeParent=1;resizeParentMax=0;resizeLast=0;collapsible=1;marginBottom=0;fontFamily=Helvetica;fontSize=12;fontColor=#000000;" parent="WIyWlLk6GJQsqaUBKTNV-1" vertex="1">
          <mxGeometry x="720" y="360" width="449" height="70" as="geometry" />
        </mxCell>
        <mxCell id="IO2iFSCvqAnWVY3sA_fM-46" value="runtime_-&amp;gt;RegisterUncaughtExceptionHandler(JsiBaseUtils::&lt;font color=&quot;#ff1808&quot;&gt;ReportJsErrorEvent&lt;/font&gt;);&lt;br&gt;注册出现崩溃等情况的监听回调" style="text;strokeColor=none;fillColor=none;align=left;verticalAlign=top;spacingLeft=4;spacingRight=4;overflow=hidden;rotatable=0;points=[[0,0.5],[1,0.5]];portConstraint=eastwest;fontFamily=Helvetica;fontSize=12;fontColor=#000000;whiteSpace=wrap;html=1;" parent="IO2iFSCvqAnWVY3sA_fM-45" vertex="1">
          <mxGeometry y="26" width="449" height="44" as="geometry" />
        </mxCell>
        <mxCell id="IO2iFSCvqAnWVY3sA_fM-51" style="edgeStyle=orthogonalEdgeStyle;rounded=0;orthogonalLoop=1;jettySize=auto;html=1;exitX=1;exitY=0.5;exitDx=0;exitDy=0;entryX=1;entryY=0.5;entryDx=0;entryDy=0;fontFamily=Helvetica;fontSize=12;fontColor=#000000;startSize=26;" parent="WIyWlLk6GJQsqaUBKTNV-1" source="zkfFHV4jXpPFQw0GAbJ--20" target="IO2iFSCvqAnWVY3sA_fM-45" edge="1">
          <mxGeometry relative="1" as="geometry" />
        </mxCell>
        <mxCell id="IO2iFSCvqAnWVY3sA_fM-53" value="SubClassname" style="swimlane;fontStyle=0;childLayout=stackLayout;horizontal=1;startSize=26;fillColor=none;horizontalStack=0;resizeParent=1;resizeParentMax=0;resizeLast=0;collapsible=1;marginBottom=0;fontFamily=Helvetica;fontSize=12;fontColor=#000000;" parent="WIyWlLk6GJQsqaUBKTNV-1" vertex="1">
          <mxGeometry x="180" y="310" width="140" height="104" as="geometry">
            <mxRectangle x="30" y="310" width="100" height="30" as="alternateBounds" />
          </mxGeometry>
        </mxCell>
        <mxCell id="IO2iFSCvqAnWVY3sA_fM-54" value="JsiEngine" style="text;strokeColor=none;fillColor=none;align=left;verticalAlign=top;spacingLeft=4;spacingRight=4;overflow=hidden;rotatable=0;points=[[0,0.5],[1,0.5]];portConstraint=eastwest;fontFamily=Helvetica;fontSize=12;fontColor=#000000;" parent="IO2iFSCvqAnWVY3sA_fM-53" vertex="1">
          <mxGeometry y="26" width="140" height="26" as="geometry" />
        </mxCell>
        <mxCell id="IO2iFSCvqAnWVY3sA_fM-55" value="QjsEngine" style="text;strokeColor=none;fillColor=none;align=left;verticalAlign=top;spacingLeft=4;spacingRight=4;overflow=hidden;rotatable=0;points=[[0,0.5],[1,0.5]];portConstraint=eastwest;fontFamily=Helvetica;fontSize=12;fontColor=#000000;" parent="IO2iFSCvqAnWVY3sA_fM-53" vertex="1">
          <mxGeometry y="52" width="140" height="26" as="geometry" />
        </mxCell>
        <mxCell id="IO2iFSCvqAnWVY3sA_fM-56" value="V8Engine" style="text;strokeColor=none;fillColor=none;align=left;verticalAlign=top;spacingLeft=4;spacingRight=4;overflow=hidden;rotatable=0;points=[[0,0.5],[1,0.5]];portConstraint=eastwest;fontFamily=Helvetica;fontSize=12;fontColor=#000000;" parent="IO2iFSCvqAnWVY3sA_fM-53" vertex="1">
          <mxGeometry y="78" width="140" height="26" as="geometry" />
        </mxCell>
        <mxCell id="IO2iFSCvqAnWVY3sA_fM-35" value="&lt;br&gt;&lt;div style=&quot;color: rgb(212, 212, 212); background-color: rgb(30, 30, 30); font-family: Consolas, &amp;quot;Courier New&amp;quot;, monospace; font-weight: normal; font-size: 14px; line-height: 19px;&quot;&gt;&lt;div&gt;&lt;span style=&quot;color: #4ec9b0;&quot;&gt;JsiEngineLoader&lt;/span&gt;&lt;/div&gt;&lt;/div&gt;&lt;div style=&quot;color: rgb(212, 212, 212); background-color: rgb(30, 30, 30); font-family: Consolas, &amp;quot;Courier New&amp;quot;, monospace; font-size: 14px; line-height: 19px;&quot;&gt;&lt;span style=&quot;color: #4ec9b0;&quot;&gt;QjsEngineLoader&lt;/span&gt;&lt;/div&gt;&lt;div style=&quot;color: rgb(212, 212, 212); background-color: rgb(30, 30, 30); font-family: Consolas, &amp;quot;Courier New&amp;quot;, monospace; font-size: 14px; line-height: 19px;&quot;&gt;&lt;div style=&quot;line-height: 19px;&quot;&gt;&lt;span style=&quot;color: #4ec9b0;&quot;&gt;V8EngineLoader&lt;/span&gt;&lt;/div&gt;&lt;/div&gt;" style="text;html=1;strokeColor=none;fillColor=none;align=center;verticalAlign=middle;whiteSpace=wrap;rounded=0;labelBackgroundColor=none;labelBorderColor=none;" parent="WIyWlLk6GJQsqaUBKTNV-1" vertex="1">
          <mxGeometry x="220" y="450" width="60" height="30" as="geometry" />
        </mxCell>
        <mxCell id="IO2iFSCvqAnWVY3sA_fM-57" value="" style="edgeStyle=orthogonalEdgeStyle;rounded=0;orthogonalLoop=1;jettySize=auto;html=1;exitX=0;exitY=0.5;exitDx=0;exitDy=0;entryX=0.5;entryY=1;entryDx=0;entryDy=0;endArrow=none;" parent="WIyWlLk6GJQsqaUBKTNV-1" source="zkfFHV4jXpPFQw0GAbJ--2" target="IO2iFSCvqAnWVY3sA_fM-35" edge="1">
          <mxGeometry relative="1" as="geometry">
            <mxPoint x="240" y="293.9999999999999" as="targetPoint" />
            <mxPoint x="325" y="559" as="sourcePoint" />
          </mxGeometry>
        </mxCell>
        <mxCell id="IO2iFSCvqAnWVY3sA_fM-58" value="&lt;h1&gt;arkui_ace_engine&lt;br&gt;&lt;/h1&gt;" style="text;html=1;strokeColor=none;fillColor=none;spacing=5;spacingTop=-20;whiteSpace=wrap;overflow=hidden;rounded=0;fontFamily=Helvetica;fontSize=12;fontColor=#000000;" parent="WIyWlLk6GJQsqaUBKTNV-1" vertex="1">
          <mxGeometry x="500" y="230" width="220" height="40" as="geometry" />
        </mxCell>
        <mxCell id="IO2iFSCvqAnWVY3sA_fM-67" value="JsiBaseUtils" style="swimlane;fontStyle=1;align=center;verticalAlign=top;childLayout=stackLayout;horizontal=1;startSize=26;horizontalStack=0;resizeParent=1;resizeParentMax=0;resizeLast=0;collapsible=1;marginBottom=0;fontFamily=Helvetica;fontSize=12;fontColor=#000000;" parent="WIyWlLk6GJQsqaUBKTNV-1" vertex="1">
          <mxGeometry x="40" y="940" width="460" height="210" as="geometry" />
        </mxCell>
        <mxCell id="IO2iFSCvqAnWVY3sA_fM-70" value="JsiDumpSourceFile(const std::string&amp; stackStr, const std::string&amp; pageUrl, &#xa;                                 const RefPtr&lt;RevSourceMap&gt;&amp; pageMap,&#xa;                                 const RefPtr&lt;RevSourceMap&gt;&amp; appMap, const AceType *data)&#xa;依据映射打印" style="text;strokeColor=none;fillColor=none;align=left;verticalAlign=top;spacingLeft=4;spacingRight=4;overflow=hidden;rotatable=0;points=[[0,0.5],[1,0.5]];portConstraint=eastwest;fontFamily=Helvetica;fontSize=12;fontColor=#000000;" parent="IO2iFSCvqAnWVY3sA_fM-67" vertex="1">
          <mxGeometry y="26" width="460" height="62" as="geometry" />
        </mxCell>
        <mxCell id="IO2iFSCvqAnWVY3sA_fM-68" value="GenerateSummaryBody(std::shared_ptr&lt;JsValue&gt; error,&#xa;                                        std::shared_ptr&lt;JsRuntime&gt; runtime)&#xa;异常状态（崩溃等）时的堆栈信息打印" style="text;strokeColor=none;fillColor=none;align=left;verticalAlign=top;spacingLeft=4;spacingRight=4;overflow=hidden;rotatable=0;points=[[0,0.5],[1,0.5]];portConstraint=eastwest;fontFamily=Helvetica;fontSize=12;fontColor=#000000;" parent="IO2iFSCvqAnWVY3sA_fM-67" vertex="1">
          <mxGeometry y="88" width="460" height="54" as="geometry" />
        </mxCell>
        <mxCell id="IO2iFSCvqAnWVY3sA_fM-72" value="" style="line;strokeWidth=1;fillColor=none;align=left;verticalAlign=middle;spacingTop=-1;spacingLeft=3;spacingRight=3;rotatable=0;labelPosition=right;points=[];portConstraint=eastwest;fontFamily=Helvetica;fontSize=12;fontColor=#000000;" parent="IO2iFSCvqAnWVY3sA_fM-67" vertex="1">
          <mxGeometry y="142" width="460" height="8" as="geometry" />
        </mxCell>
        <mxCell id="IO2iFSCvqAnWVY3sA_fM-73" value="TransSourceStack(RefPtr&lt;JsAcePage&gt; runningPage,&#xa;                               const std::string&amp; rawStack)&#xa;正常的堆栈信息打印" style="text;strokeColor=none;fillColor=none;align=left;verticalAlign=top;spacingLeft=4;spacingRight=4;overflow=hidden;rotatable=0;points=[[0,0.5],[1,0.5]];portConstraint=eastwest;fontFamily=Helvetica;fontSize=12;fontColor=#000000;" parent="IO2iFSCvqAnWVY3sA_fM-67" vertex="1">
          <mxGeometry y="150" width="460" height="52" as="geometry" />
        </mxCell>
        <mxCell id="IO2iFSCvqAnWVY3sA_fM-69" value="" style="line;strokeWidth=1;fillColor=none;align=left;verticalAlign=middle;spacingTop=-1;spacingLeft=3;spacingRight=3;rotatable=0;labelPosition=right;points=[];portConstraint=eastwest;fontFamily=Helvetica;fontSize=12;fontColor=#000000;" parent="IO2iFSCvqAnWVY3sA_fM-67" vertex="1">
          <mxGeometry y="202" width="460" height="8" as="geometry" />
        </mxCell>
        <mxCell id="gc637wlKcGNYt09lKCeK-4" value="arkui_ace_engine" style="shape=module;align=left;spacingLeft=20;align=center;verticalAlign=top;fillColor=none;" vertex="1" parent="WIyWlLk6GJQsqaUBKTNV-1">
          <mxGeometry x="1220" y="430" width="600" height="260" as="geometry" />
        </mxCell>
        <mxCell id="gc637wlKcGNYt09lKCeK-5" value="&lt;div&gt;void ArkJSRuntime::RegisterUncaughtExceptionHandler(UncaughtExceptionCallback callback)&lt;/div&gt;&lt;div&gt;{&lt;/div&gt;&lt;div&gt;&amp;nbsp; &amp;nbsp; JSNApi::EnableUserUncaughtErrorHandler(vm_);&lt;/div&gt;&lt;div&gt;&amp;nbsp; &amp;nbsp; uncaughtErrorHandler_ = callback;&lt;/div&gt;&lt;div&gt;}&lt;/div&gt;&lt;div&gt;&lt;br&gt;&lt;/div&gt;&lt;div&gt;void ArkJSRuntime::HandleUncaughtException()&lt;/div&gt;&lt;div&gt;{&lt;/div&gt;&lt;div&gt;&amp;nbsp; &amp;nbsp; Local&amp;lt;ObjectRef&amp;gt; exception = JSNApi::GetAndClearUncaughtException(vm_);&lt;/div&gt;&lt;div&gt;&amp;nbsp; &amp;nbsp; if (!exception.IsEmpty() &amp;amp;&amp;amp; !exception-&amp;gt;IsHole() &amp;amp;&amp;amp; uncaughtErrorHandler_ != nullptr) {&lt;/div&gt;&lt;div&gt;&amp;nbsp; &amp;nbsp; &amp;nbsp; &amp;nbsp; shared_ptr&amp;lt;JsValue&amp;gt; errorPtr =&lt;/div&gt;&lt;div&gt;&amp;nbsp; &amp;nbsp; &amp;nbsp; &amp;nbsp; &amp;nbsp; &amp;nbsp; std::static_pointer_cast&amp;lt;JsValue&amp;gt;(std::make_shared&amp;lt;ArkJSValue&amp;gt;(shared_from_this(), exception));&lt;/div&gt;&lt;div&gt;&amp;nbsp; &amp;nbsp; &amp;nbsp; &amp;nbsp; uncaughtErrorHandler_(errorPtr, shared_from_this());&lt;/div&gt;&lt;div&gt;&amp;nbsp; &amp;nbsp; }&lt;/div&gt;&lt;div&gt;}&lt;/div&gt;" style="text;html=1;strokeColor=none;fillColor=none;align=left;verticalAlign=middle;rounded=0;" vertex="1" parent="WIyWlLk6GJQsqaUBKTNV-1">
          <mxGeometry x="1241" y="531.5" width="480" height="70" as="geometry" />
        </mxCell>
      </root>
    </mxGraphModel>
  </diagram>
  <diagram id="hDtbf-zA4DBISrhL9DiU" name="第 2 页">
    <mxGraphModel dx="2187" dy="802" grid="1" gridSize="10" guides="1" tooltips="1" connect="1" arrows="1" fold="1" page="1" pageScale="1" pageWidth="827" pageHeight="1169" math="0" shadow="0">
      <root>
        <mxCell id="0" />
        <mxCell id="1" parent="0" />
        <mxCell id="Zrdil0xcKAJzlIzVpnki-1" value="MainThread" style="swimlane;fontStyle=0;childLayout=stackLayout;horizontal=1;startSize=30;fillColor=none;horizontalStack=0;resizeParent=1;resizeParentMax=0;resizeLast=0;collapsible=1;marginBottom=0;" parent="1" vertex="1">
          <mxGeometry x="24" y="280" width="400" height="126" as="geometry" />
        </mxCell>
        <mxCell id="kwX6FUbtJQHW2YQrAjjA-1" value="pivotal virtual function:&lt;br&gt;&lt;span style=&quot;&quot;&gt; &lt;/span&gt;&lt;span style=&quot;white-space: pre;&quot;&gt; &lt;/span&gt;" style="text;align=left;verticalAlign=top;spacingLeft=4;spacingRight=4;overflow=hidden;rotatable=0;points=[[0,0.5],[1,0.5]];portConstraint=eastwest;rounded=0;shadow=0;html=1;" parent="Zrdil0xcKAJzlIzVpnki-1" vertex="1">
          <mxGeometry y="30" width="400" height="30" as="geometry" />
        </mxCell>
        <mxCell id="Zrdil0xcKAJzlIzVpnki-3" value="    HandleLaunchApplication(const AppLaunchData &amp;appLaunchData,&#xa;                                                    const Configuration &amp;config)" style="text;strokeColor=none;fillColor=none;align=left;verticalAlign=top;spacingLeft=4;spacingRight=4;overflow=hidden;rotatable=0;points=[[0,0.5],[1,0.5]];portConstraint=eastwest;" parent="Zrdil0xcKAJzlIzVpnki-1" vertex="1">
          <mxGeometry y="60" width="400" height="40" as="geometry" />
        </mxCell>
        <mxCell id="Zrdil0xcKAJzlIzVpnki-4" value="    HandleScheduleANRProcess()" style="text;strokeColor=none;fillColor=none;align=left;verticalAlign=top;spacingLeft=4;spacingRight=4;overflow=hidden;rotatable=0;points=[[0,0.5],[1,0.5]];portConstraint=eastwest;" parent="Zrdil0xcKAJzlIzVpnki-1" vertex="1">
          <mxGeometry y="100" width="400" height="26" as="geometry" />
        </mxCell>
        <mxCell id="uhYaOOTYZcCX7MPOTiqz-1" value="&lt;h1&gt;ability_ability_runtime&lt;br&gt;&lt;/h1&gt;" style="text;html=1;strokeColor=none;fillColor=none;spacing=5;spacingTop=-20;whiteSpace=wrap;overflow=hidden;rounded=0;fontFamily=Helvetica;fontSize=12;fontColor=#000000;" parent="1" vertex="1">
          <mxGeometry x="260" y="90" width="260" height="40" as="geometry" />
        </mxCell>
        <mxCell id="kwX6FUbtJQHW2YQrAjjA-23" value="NativeEngine（parent class）" style="swimlane;fontStyle=1;align=center;verticalAlign=top;childLayout=stackLayout;horizontal=1;startSize=26;horizontalStack=0;resizeParent=1;resizeParentMax=0;resizeLast=0;collapsible=1;marginBottom=0;" parent="1" vertex="1">
          <mxGeometry x="284" y="650" width="520" height="140" as="geometry" />
        </mxCell>
        <mxCell id="kwX6FUbtJQHW2YQrAjjA-24" value="+ field: &lt;font color=&quot;#ff1808&quot;&gt;arkui_napi &lt;/font&gt;（仓库名）" style="text;strokeColor=none;fillColor=none;align=left;verticalAlign=top;spacingLeft=4;spacingRight=4;overflow=hidden;rotatable=0;points=[[0,0.5],[1,0.5]];portConstraint=eastwest;html=1;" parent="kwX6FUbtJQHW2YQrAjjA-23" vertex="1">
          <mxGeometry y="26" width="520" height="26" as="geometry" />
        </mxCell>
        <mxCell id="kwX6FUbtJQHW2YQrAjjA-25" value="" style="line;strokeWidth=1;fillColor=none;align=left;verticalAlign=middle;spacingTop=-1;spacingLeft=3;spacingRight=3;rotatable=0;labelPosition=right;points=[];portConstraint=eastwest;" parent="kwX6FUbtJQHW2YQrAjjA-23" vertex="1">
          <mxGeometry y="52" width="520" height="8" as="geometry" />
        </mxCell>
        <mxCell id="kwX6FUbtJQHW2YQrAjjA-26" value="+ method(type): bool BuildJsStackTrace(std::string &amp;stackTraceStr)&#xa;                            // 内部给stackTraceStr传入堆栈message" style="text;strokeColor=none;fillColor=none;align=left;verticalAlign=top;spacingLeft=4;spacingRight=4;overflow=hidden;rotatable=0;points=[[0,0.5],[1,0.5]];portConstraint=eastwest;" parent="kwX6FUbtJQHW2YQrAjjA-23" vertex="1">
          <mxGeometry y="60" width="520" height="40" as="geometry" />
        </mxCell>
        <mxCell id="kwX6FUbtJQHW2YQrAjjA-29" value="+ method(type): void RegisterUncaughtExceptionHandler(UncaughtExceptionCallback callback)&#xa;                            // 注册监听异常情况的回调函数" style="text;strokeColor=none;fillColor=none;align=left;verticalAlign=top;spacingLeft=4;spacingRight=4;overflow=hidden;rotatable=0;points=[[0,0.5],[1,0.5]];portConstraint=eastwest;" parent="kwX6FUbtJQHW2YQrAjjA-23" vertex="1">
          <mxGeometry y="100" width="520" height="40" as="geometry" />
        </mxCell>
        <mxCell id="kwX6FUbtJQHW2YQrAjjA-31" style="edgeStyle=orthogonalEdgeStyle;rounded=0;orthogonalLoop=1;jettySize=auto;html=1;exitX=1;exitY=0.5;exitDx=0;exitDy=0;fontColor=#000000;" parent="1" source="Zrdil0xcKAJzlIzVpnki-3" target="kwX6FUbtJQHW2YQrAjjA-32" edge="1">
          <mxGeometry relative="1" as="geometry">
            <mxPoint x="644" y="470" as="targetPoint" />
          </mxGeometry>
        </mxCell>
        <mxCell id="kwX6FUbtJQHW2YQrAjjA-34" style="edgeStyle=orthogonalEdgeStyle;rounded=0;orthogonalLoop=1;jettySize=auto;html=1;exitX=1;exitY=0.5;exitDx=0;exitDy=0;entryX=1;entryY=0.5;entryDx=0;entryDy=0;fontColor=#000000;" parent="1" source="kwX6FUbtJQHW2YQrAjjA-32" target="kwX6FUbtJQHW2YQrAjjA-29" edge="1">
          <mxGeometry relative="1" as="geometry" />
        </mxCell>
        <mxCell id="kwX6FUbtJQHW2YQrAjjA-32" value="«Annotation»&lt;span style=&quot;white-space: pre;&quot;&gt; &lt;/span&gt;程序启动前操作，大多数行为的注册监听操作&amp;nbsp; &amp;nbsp; &amp;nbsp;&lt;br&gt;&lt;b&gt;Component&lt;/b&gt;&lt;br&gt;&lt;b&gt;jsEngine.RegisterUncaughtExceptionHandler(uncaughtTask);&lt;br&gt;注册异常时回调，（&lt;/b&gt;&lt;b&gt;uncaughtTask lamada表达式封装打印操作）&lt;/b&gt;&lt;b&gt;&lt;br&gt;&lt;/b&gt;" style="html=1;dropTarget=0;fontColor=#000000;" parent="1" vertex="1">
          <mxGeometry x="424" y="425" width="370" height="75" as="geometry" />
        </mxCell>
        <mxCell id="kwX6FUbtJQHW2YQrAjjA-33" value="" style="shape=module;jettyWidth=8;jettyHeight=4;fontColor=#000000;html=1;" parent="kwX6FUbtJQHW2YQrAjjA-32" vertex="1">
          <mxGeometry x="1" width="20" height="20" relative="1" as="geometry">
            <mxPoint x="-27" y="7" as="offset" />
          </mxGeometry>
        </mxCell>
        <mxCell id="kwX6FUbtJQHW2YQrAjjA-35" style="edgeStyle=orthogonalEdgeStyle;rounded=0;orthogonalLoop=1;jettySize=auto;html=1;exitX=0;exitY=0.5;exitDx=0;exitDy=0;fontColor=#000000;" parent="1" source="Zrdil0xcKAJzlIzVpnki-4" target="kwX6FUbtJQHW2YQrAjjA-36" edge="1">
          <mxGeometry relative="1" as="geometry">
            <mxPoint x="140" y="530" as="targetPoint" />
          </mxGeometry>
        </mxCell>
        <mxCell id="kwX6FUbtJQHW2YQrAjjA-38" style="edgeStyle=orthogonalEdgeStyle;rounded=0;orthogonalLoop=1;jettySize=auto;html=1;exitX=0.5;exitY=1;exitDx=0;exitDy=0;fontColor=#000000;" parent="1" source="kwX6FUbtJQHW2YQrAjjA-36" target="kwX6FUbtJQHW2YQrAjjA-26" edge="1">
          <mxGeometry relative="1" as="geometry" />
        </mxCell>
        <mxCell id="kwX6FUbtJQHW2YQrAjjA-36" value="«Annotation» 记录stacktrace dump等信息&lt;br&gt;&lt;b&gt;Component&lt;/b&gt;&lt;br&gt;&lt;b&gt;mainThreadStackInfo = applicationForAnr_-&amp;gt;GetRuntime()-&amp;gt;BuildJsStackTrace();&lt;br&gt;js_runtime中封装一层&lt;/b&gt;&lt;b&gt;BuildJsStackTrace(),实际返回的stacktrace message&lt;/b&gt;&lt;b&gt;&lt;br&gt;&lt;/b&gt;" style="html=1;dropTarget=0;fontColor=#000000;" parent="1" vertex="1">
          <mxGeometry x="14" y="520" width="490" height="80" as="geometry" />
        </mxCell>
        <mxCell id="kwX6FUbtJQHW2YQrAjjA-37" value="" style="shape=module;jettyWidth=8;jettyHeight=4;fontColor=#000000;html=1;" parent="kwX6FUbtJQHW2YQrAjjA-36" vertex="1">
          <mxGeometry x="1" width="20" height="20" relative="1" as="geometry">
            <mxPoint x="-27" y="7" as="offset" />
          </mxGeometry>
        </mxCell>
        <mxCell id="zl82fyuNG3pqM_zaUJ3s-1" value="&lt;font color=&quot;#ff1808&quot;&gt;OHOS::HiviewDFX::HiSysEvent::Write&lt;/font&gt;&lt;br&gt;&lt;br&gt;最终获取（转换）得到的message传入的接口，以此打印" style="shape=module;align=left;spacingLeft=20;align=center;verticalAlign=top;fontColor=#000000;html=1;" parent="1" vertex="1">
          <mxGeometry x="-10" y="800" width="390" height="90" as="geometry" />
        </mxCell>
        <mxCell id="JaBNUPBwrtgtio3I0wMF-1" value="arkui_napi" style="shape=module;align=left;spacingLeft=20;align=center;verticalAlign=top;fillColor=none;fontColor=#FF1808;" vertex="1" parent="1">
          <mxGeometry x="194" y="900" width="616" height="250" as="geometry" />
        </mxCell>
        <mxCell id="JaBNUPBwrtgtio3I0wMF-2" value="&lt;div&gt;void ArkNativeEngineImpl::RegisterUncaughtExceptionHandler(UncaughtExceptionCallback callback)&lt;/div&gt;&lt;div&gt;{&lt;/div&gt;&lt;div&gt;&amp;nbsp; &amp;nbsp; JSNApi::EnableUserUncaughtErrorHandler(vm_);&lt;/div&gt;&lt;div&gt;&amp;nbsp; &amp;nbsp; uncaughtExceptionCallback_ = callback;&lt;/div&gt;&lt;div&gt;}&lt;/div&gt;&lt;div&gt;&lt;br&gt;&lt;/div&gt;&lt;div&gt;void ArkNativeEngineImpl::HandleUncaughtException(NativeEngine* engine)&lt;/div&gt;&lt;div&gt;{&lt;/div&gt;&lt;div&gt;&amp;nbsp; &amp;nbsp; Local&amp;lt;ObjectRef&amp;gt; exception = JSNApi::GetAndClearUncaughtException(vm_);&lt;/div&gt;&lt;div&gt;&amp;nbsp; &amp;nbsp; if (!exception.IsEmpty() &amp;amp;&amp;amp; !exception-&amp;gt;IsHole() &amp;amp;&amp;amp; uncaughtExceptionCallback_ != nullptr) {&lt;/div&gt;&lt;div&gt;&amp;nbsp; &amp;nbsp; &amp;nbsp; &amp;nbsp; uncaughtExceptionCallback_(ArkValueToNativeValue(static_cast&amp;lt;ArkNativeEngine*&amp;gt;(engine), exception));&lt;/div&gt;&lt;div&gt;&amp;nbsp; &amp;nbsp; }&lt;/div&gt;&lt;div&gt;}&lt;/div&gt;" style="text;html=1;strokeColor=none;fillColor=none;align=left;verticalAlign=middle;rounded=0;" vertex="1" parent="1">
          <mxGeometry x="215" y="991.5" width="480" height="70" as="geometry" />
        </mxCell>
      </root>
    </mxGraphModel>
  </diagram>
</mxfile>
